<svg xmlns="http://www.w3.org/2000/svg" viewBox="0 0 394.8 80.4" width="250" height="50"><defs><style>.cls-1{fill:#fff;}</style></defs><g id="Layer_2" data-name="Layer 2"><g id="Layer_1-2" data-name="Layer 1"><path class="cls-1" d="M114.6,28.6c-4.1,0-7.2,1.3-9.4,3.8S102,38.5,102,43a22.14,22.14,0,0,0,.8,5.9,13.26,13.26,0,0,0,2.3,4.6,10.15,10.15,0,0,0,3.8,3,12.53,12.53,0,0,0,5.3,1.1,32.18,32.18,0,0,0,3.3-.1,10.9,10.9,0,0,0,2.2-.4V42.7h7.2V61.8a35.71,35.71,0,0,1-5.1,1.3,40.44,40.44,0,0,1-8.2.7,22.2,22.2,0,0,1-7.9-1.4,17,17,0,0,1-6.1-4,17.64,17.64,0,0,1-3.9-6.5A26.81,26.81,0,0,1,94.3,43a24.79,24.79,0,0,1,1.5-8.9,18.25,18.25,0,0,1,4.2-6.5,18.64,18.64,0,0,1,6.2-4.1,21.36,21.36,0,0,1,7.6-1.4,24.28,24.28,0,0,1,4.9.4,26.1,26.1,0,0,1,3.7.8,12.85,12.85,0,0,1,2.6,1c.7.3,1.1.6,1.4.7l-2.2,5.9a17.38,17.38,0,0,0-4.3-1.8,30.72,30.72,0,0,0-5.3-.5"/><path class="cls-1" d="M148.5,39.2a20.76,20.76,0,0,0-2.4-.6,18.27,18.27,0,0,0-3.5-.3,19.42,19.42,0,0,0-2.4.2c-.9.2-1.5.3-1.8.4V63h-7V34.3a31.31,31.31,0,0,1,5-1.4,33.63,33.63,0,0,1,6.7-.7,9.15,9.15,0,0,1,1.6.1c.6.1,1.2.1,1.8.2l1.8.3a12.75,12.75,0,0,1,1.4.4Z"/><path class="cls-1" d="M178.3,47.9a19.27,19.27,0,0,1-1,6.5,15.3,15.3,0,0,1-2.9,5,12.33,12.33,0,0,1-4.6,3.2,14.11,14.11,0,0,1-5.9,1.1,16.29,16.29,0,0,1-5.9-1.1,12.3,12.3,0,0,1-4.5-3.2,13.91,13.91,0,0,1-3-5,19.75,19.75,0,0,1,0-13,14.83,14.83,0,0,1,3-5,13.6,13.6,0,0,1,4.6-3.2,15.75,15.75,0,0,1,5.8-1.1,15.37,15.37,0,0,1,5.8,1.1,12.33,12.33,0,0,1,4.6,3.2,13.91,13.91,0,0,1,3,5,22.15,22.15,0,0,1,1,6.5m-7.1,0c0-3-.6-5.4-1.9-7.1a6.91,6.91,0,0,0-10.8,0c-1.3,1.7-1.9,4.1-1.9,7.1a12,12,0,0,0,1.9,7.2,6.21,6.21,0,0,0,5.4,2.6,6.46,6.46,0,0,0,5.4-2.6,12.79,12.79,0,0,0,1.9-7.2"/><path class="cls-1" d="M200.5,44.1c-.9,3.4-1.8,6.7-2.8,9.9s-2,6.2-3,9.1H189q-1.2-2.7-2.4-6c-.8-2.3-1.7-4.7-2.5-7.2s-1.7-5.3-2.5-8.1-1.7-5.7-2.5-8.7h7.4c.3,1.6.8,3.3,1.2,5.2s.9,3.8,1.4,5.7,1,3.8,1.6,5.7,1.1,3.5,1.6,5.1c.6-1.8,1.1-3.6,1.7-5.5s1.1-3.8,1.6-5.6,1-3.7,1.4-5.5.8-3.5,1.2-5h5.3c.3,1.6.7,3.2,1.1,5s.9,3.6,1.3,5.5,1,3.8,1.5,5.6,1.1,3.7,1.7,5.5c.5-1.5,1-3.2,1.6-5.1s1.1-3.7,1.6-5.7l1.5-5.7c.5-1.9.9-3.6,1.2-5.2h7.2c-.8,3-1.6,5.8-2.5,8.7s-1.7,5.5-2.5,8.1-1.7,5-2.5,7.2a60.82,60.82,0,0,1-2.5,6h-5.7c-1-2.8-2-5.9-3.1-9.1s-2-6.6-2.9-9.9"/><path class="cls-1" d="M236.3,63.3a16.23,16.23,0,0,1-2.1-.1c-.8-.1-1.6-.1-2.4-.2l-2.3-.3c-.7-.1-1.4-.3-1.9-.4V27.7a11.21,11.21,0,0,1,2.1-.4c.8-.1,1.5-.2,2.4-.3s1.6-.1,2.4-.2,1.5-.1,2.2-.1a32.13,32.13,0,0,1,5.5.5,13.2,13.2,0,0,1,4.6,1.6,8.07,8.07,0,0,1,4.3,7.3,8.45,8.45,0,0,1-1.5,5,7.19,7.19,0,0,1-4,2.8,14.19,14.19,0,0,1,2.9,1,9.8,9.8,0,0,1,2.3,1.7,6.14,6.14,0,0,1,1.5,2.6,10,10,0,0,1,.5,3.7,8.76,8.76,0,0,1-4,7.8c-2.7,1.7-6.9,2.6-12.5,2.6m-5.1-20.6h6.9a20.16,20.16,0,0,0,3.6-.3,9.64,9.64,0,0,0,3-1,6.36,6.36,0,0,0,2-2,6.08,6.08,0,0,0,.7-3.2,5.57,5.57,0,0,0-.8-3,6.09,6.09,0,0,0-2.2-2,11.32,11.32,0,0,0-3.4-1.1,38.34,38.34,0,0,0-7.6-.2c-.9.1-1.6.2-2.2.3V42.7Zm0,3V59.9c.5.1,1.3.1,2.3.2s2.1.1,3.2.1a34.4,34.4,0,0,0,4.6-.3,15.6,15.6,0,0,0,4-1.1,7.88,7.88,0,0,0,2.8-2.3,6.32,6.32,0,0,0,1-3.8,7.55,7.55,0,0,0-.7-3.5,5.56,5.56,0,0,0-2.1-2.2,9.85,9.85,0,0,0-3.3-1.1,28.07,28.07,0,0,0-4.3-.3h-7.5Z"/><path class="cls-1" d="M265.4,63.5q-1.65-3.15-3.3-6.6c-1.1-2.3-2-4.6-3-6.9s-1.8-4.7-2.5-7-1.4-4.6-2-6.9h3.6q.6,2.55,1.5,5.4c.6,1.9,1.3,3.9,2,5.9s1.6,4.1,2.5,6.3,1.9,4.3,2.9,6.3a61.64,61.64,0,0,0,2-6.1c.6-1.9,1.1-3.8,1.7-5.7s1-3.8,1.5-5.8,1-4.1,1.4-6.4h3.4c-1.1,5-2.4,9.9-3.8,14.7a115.27,115.27,0,0,1-4.6,13,29.69,29.69,0,0,1-2,4,13.24,13.24,0,0,1-2.3,2.8,7.89,7.89,0,0,1-3,1.6,15.59,15.59,0,0,1-4,.5,8.75,8.75,0,0,1-2.4-.3,4.78,4.78,0,0,1-1.3-.5l.7-2.8a2.54,2.54,0,0,0,1.2.4,6.45,6.45,0,0,0,2,.3,10.32,10.32,0,0,0,2.6-.3,5.29,5.29,0,0,0,2.1-1.1,10.46,10.46,0,0,0,1.7-1.9,15.78,15.78,0,0,0,1.4-2.9"/><path class="cls-1" d="M316.8,43a23,23,0,0,1-1.6,9,17.51,17.51,0,0,1-4.6,6.4,18.67,18.67,0,0,1-7.1,3.8,33.57,33.57,0,0,1-9.2,1.2c-1.6,0-3.4-.1-5.5-.2a35.26,35.26,0,0,1-5.8-.8V23.7a35,35,0,0,1,5.9-.8c2.1-.1,3.9-.2,5.5-.2a32.33,32.33,0,0,1,9.1,1.2,18.5,18.5,0,0,1,7.1,3.7,17.14,17.14,0,0,1,4.6,6.3,25.08,25.08,0,0,1,1.6,9.1M290.2,57c.4,0,1,.1,1.7.1h2.8c4.9,0,8.5-1.2,10.9-3.7s3.6-5.9,3.6-10.4-1.2-8-3.5-10.4-6-3.6-10.9-3.6a44.75,44.75,0,0,0-4.6.2Z"/><path class="cls-1" d="M332.5,32.2a16.44,16.44,0,0,1,5.8.9,10.32,10.32,0,0,1,3.8,2.4,9.22,9.22,0,0,1,2,3.8,18.79,18.79,0,0,1,.6,4.9V62.4c-1.1.2-2.7.5-4.9.8a53.45,53.45,0,0,1-7.3.5,24.61,24.61,0,0,1-4.9-.5,8.85,8.85,0,0,1-3.8-1.7,8.06,8.06,0,0,1-2.5-3,10,10,0,0,1-.9-4.5,8.68,8.68,0,0,1,1-4.4,8.38,8.38,0,0,1,2.7-2.9,12,12,0,0,1,4-1.6,24.16,24.16,0,0,1,4.7-.5,19.27,19.27,0,0,1,2.4.1c.8.1,1.7.3,2.7.5V44.1a8.52,8.52,0,0,0-.3-2.3,4.62,4.62,0,0,0-2.9-3.2,8.53,8.53,0,0,0-3-.5,29.45,29.45,0,0,0-4.4.3,20,20,0,0,0-3.3.8l-.9-5.6a29.09,29.09,0,0,1,3.9-.9,25,25,0,0,1,5.5-.5m.6,25.9a30.16,30.16,0,0,0,4.9-.3V50.1a13.88,13.88,0,0,0-1.7-.3,16.59,16.59,0,0,0-2.4-.2,17.85,17.85,0,0,0-2.3.2,6.46,6.46,0,0,0-2.1.6,3.74,3.74,0,0,0-1.5,1.3,3.7,3.7,0,0,0-.6,2.1,3.56,3.56,0,0,0,1.6,3.4,7.56,7.56,0,0,0,4.1.9"/><path class="cls-1" d="M349.4,25l7-1.1V33h10.7v5.8H356.4V51c0,2.4.4,4.1,1.2,5.2a4.75,4.75,0,0,0,3.9,1.6,11.76,11.76,0,0,0,3.4-.4c1-.3,1.8-.5,2.3-.7l1.1,5.5c-.8.3-1.9.7-3.2,1.1a15.8,15.8,0,0,1-4.6.5,14.53,14.53,0,0,1-5.4-.9,8,8,0,0,1-3.4-2.5,11.33,11.33,0,0,1-1.8-4,28.08,28.08,0,0,1-.5-5.3Z"/><path class="cls-1" d="M382.6,32.2a16.44,16.44,0,0,1,5.8.9,10.32,10.32,0,0,1,3.8,2.4,9.22,9.22,0,0,1,2,3.8,18.79,18.79,0,0,1,.6,4.9V62.4c-1.1.2-2.7.5-4.9.8a53.45,53.45,0,0,1-7.3.5,24.61,24.61,0,0,1-4.9-.5,8.85,8.85,0,0,1-3.8-1.7,8.06,8.06,0,0,1-2.5-3,10,10,0,0,1-.9-4.5,8.68,8.68,0,0,1,1-4.4,8.38,8.38,0,0,1,2.7-2.9,12.9,12.9,0,0,1,4-1.6,24.16,24.16,0,0,1,4.7-.5,19.27,19.27,0,0,1,2.4.1c.8.1,1.7.3,2.7.5V44.1a8.52,8.52,0,0,0-.3-2.3,4.62,4.62,0,0,0-2.9-3.2,8.53,8.53,0,0,0-3-.5,29.45,29.45,0,0,0-4.4.3,20,20,0,0,0-3.3.8l-.9-5.6a29.09,29.09,0,0,1,3.9-.9,25,25,0,0,1,5.5-.5m.6,25.9a30.16,30.16,0,0,0,4.9-.3V50.1a13.88,13.88,0,0,0-1.7-.3,16.59,16.59,0,0,0-2.4-.2,17.85,17.85,0,0,0-2.3.2,6.46,6.46,0,0,0-2.1.6,3.74,3.74,0,0,0-1.5,1.3,3.7,3.7,0,0,0-.6,2.1,3.56,3.56,0,0,0,1.6,3.4,8,8,0,0,0,4.1.9"/><path class="cls-1" d="M40.2,0A40.28,40.28,0,0,0,5.8,61.1c20.4-1.5,27.9-6.4,34.4-16.3l-8.5-4.3L63.9,19.3l2.3,38.5-8.6-4.3c-8.2,13-17.4,20.3-32.2,24.1A40.21,40.21,0,1,0,40.2,0"/></g></g></svg>