<svg width="155" height="155" viewBox="0 0 155 155" fill="none" xmlns="http://www.w3.org/2000/svg">
<path d="M77.7956 3.00006C36.4851 3.00006 3 36.4851 3 77.7957C3 119.106 36.4851 152.591 77.7956 152.591C119.106 152.591 152.591 119.106 152.591 77.7957C152.591 36.4851 119.106 3.00006 77.7956 3.00006ZM77.7956 151.056C37.339 151.056 4.53482 118.263 4.53482 77.7957C4.53482 37.3282 37.3282 4.53488 77.7956 4.53488C118.263 4.53488 151.056 37.3282 151.056 77.7957C151.056 118.263 118.252 151.056 77.7956 151.056Z" fill="white" stroke="white" stroke-width="4.41528"/>
<path d="M77.8388 79.7491C74.2504 79.7491 71.332 76.8308 71.332 73.2424C71.332 69.6539 74.2504 66.7356 77.8388 66.7356C81.4273 66.7356 84.3456 69.6539 84.3456 73.2424C84.3456 76.8308 81.4273 79.7491 77.8388 79.7491ZM77.8388 70.8753C76.531 70.8753 75.4717 71.9345 75.4717 73.2424C75.4717 74.5502 76.531 75.6094 77.8388 75.6094C79.1467 75.6094 80.2059 74.5502 80.2059 73.2424C80.2059 71.9345 79.1467 70.8753 77.8388 70.8753Z" fill="white"/>
<path d="M98.0093 94.5702C95.2639 94.5702 92.713 92.8193 91.8159 90.0847C91.2755 88.431 91.416 86.6692 92.205 85.1127C92.9941 83.5671 94.3343 82.4106 95.988 81.8701C97.6418 81.3297 99.4036 81.4702 100.96 82.2592C102.506 83.0483 103.662 84.3885 104.203 86.0423C104.743 87.696 104.603 89.4578 103.813 91.0142C103.024 92.5598 101.684 93.7164 100.03 94.2568C99.3495 94.4622 98.6686 94.5702 98.0093 94.5702ZM97.9985 85.6856C97.7499 85.6856 97.5013 85.7288 97.2635 85.8045C96.0205 86.2044 95.3395 87.5447 95.7503 88.7876C96.161 90.0306 97.5013 90.7116 98.7334 90.3008C99.3387 90.1063 99.8251 89.6848 100.106 89.1227C100.387 88.5607 100.441 87.9121 100.247 87.3177C100.052 86.7124 99.6305 86.226 99.0685 85.945C98.7334 85.772 98.3659 85.6856 97.9985 85.6856Z" fill="white"/>
<path d="M57.1474 94.56C53.5589 94.56 50.6406 91.6416 50.6406 88.0532C50.6406 84.4647 53.5589 81.5464 57.1474 81.5464C60.7359 81.5464 63.6542 84.4647 63.6542 88.0532C63.6542 91.6416 60.7359 94.56 57.1474 94.56ZM57.1474 85.6861C55.8396 85.6861 54.7803 86.7453 54.7803 88.0532C54.7803 89.361 55.8396 90.4203 57.1474 90.4203C58.4552 90.4203 59.5145 89.361 59.5145 88.0532C59.5145 86.7453 58.4552 85.6861 57.1474 85.6861Z" fill="white"/>
<path d="M77.8409 125.32C76.6952 125.32 75.7656 124.39 75.7656 123.244V78.2697C75.7656 77.124 76.6952 76.1945 77.8409 76.1945C78.9866 76.1945 79.9161 77.124 79.9161 78.2697V123.244C79.9161 124.39 78.9866 125.32 77.8409 125.32Z" fill="white"/>
<path d="M46.787 88.0531C46.787 82.3462 51.4347 77.6985 57.1417 77.6985C58.5144 77.6985 59.8222 77.9687 61.022 78.4659C60.3194 74.3154 58.4387 70.4351 55.3474 67.3547C49.3703 61.3775 40.4424 59.9183 32.3035 62.761C29.4608 70.8999 30.92 79.8278 36.8971 85.805C39.8155 88.7233 43.4364 90.5499 47.3167 91.339C46.9816 90.2905 46.787 89.1989 46.787 88.0531Z" fill="white"/>
<path d="M123.272 62.749C115.133 59.9063 106.205 61.3655 100.228 67.3427C97.18 70.3907 95.3101 74.2061 94.5859 78.2918C94.6508 78.2702 94.7265 78.2378 94.7913 78.2161C97.4178 77.3514 100.228 77.5784 102.692 78.8322C105.157 80.086 106.983 82.2261 107.848 84.8526C108.561 87.0251 108.518 89.3058 107.783 91.4243C111.847 90.6893 115.641 88.8302 118.668 85.793C124.645 79.805 126.115 70.8771 123.272 62.749Z" fill="white"/>
<path d="M77.8394 62.8905C82.4547 62.8905 86.3782 65.9277 87.7077 70.1107C91.4583 65.6143 93.6849 60.0478 93.6849 54.0058C93.6849 43.7376 87.2754 34.8205 77.8502 30.2809C68.4251 34.8205 62.0156 43.7485 62.0156 54.0058C62.0156 60.037 64.2314 65.5927 67.9712 70.0782C69.3222 65.9169 73.2241 62.8905 77.8394 62.8905Z" fill="white"/>
<path d="M84.6729 121.173C83.5272 121.173 82.5977 120.243 82.5977 119.098V101.047C82.5977 100.496 82.8138 99.9665 83.2029 99.5882L92.3795 90.4117C93.1901 89.601 94.498 89.601 95.3086 90.4117C96.1192 91.2223 96.1192 92.5302 95.3086 93.3408L86.7482 101.901V119.087C86.7482 120.254 85.8186 121.173 84.6729 121.173Z" fill="white"/>
<path d="M70.4585 121.167C69.3128 121.167 68.3832 120.238 68.3832 119.092V101.907L59.8228 93.3461C59.0122 92.5355 59.0122 91.2276 59.8228 90.417C60.6335 89.6063 61.9413 89.6063 62.7519 90.417L71.9285 99.5935C72.3176 99.9826 72.5337 100.512 72.5337 101.053V119.103C72.5337 120.249 71.6042 121.167 70.4585 121.167Z" fill="white"/>
</svg>
