<?xml version="1.0" encoding="UTF-8"?> <svg xmlns="http://www.w3.org/2000/svg" xmlns:xlink="http://www.w3.org/1999/xlink" width="372.20436" height="73.58813" viewBox="0 0 372.20436 73.58813"><defs><linearGradient id="a" y1="7508.63247" x2="73.58813" y2="7508.63247" gradientTransform="matrix(1, 0, 0, -1, 0, 7545.42654)" gradientUnits="userSpaceOnUse"><stop offset="0.2531" stop-color="#84a6ca"></stop><stop offset="0.8128" stop-color="#5788b6"></stop></linearGradient><linearGradient id="b" x1="33.26565" y1="7533.5194" x2="33.26565" y2="7484.28088" gradientTransform="matrix(1, 0, 0, -1, 0, 7545.42654)" gradientUnits="userSpaceOnUse"><stop offset="0.1648" stop-color="#ff5100"></stop><stop offset="0.383" stop-color="#ff5603"></stop><stop offset="0.6229" stop-color="#ff630c"></stop><stop offset="0.8095" stop-color="#ff7217"></stop></linearGradient><linearGradient id="c" x1="67.84336" y1="7508.63248" x2="5.37193" y2="7508.63248" gradientTransform="matrix(1, 0, 0, -1, 0, 7545.42654)" gradientUnits="userSpaceOnUse"><stop offset="0.1872" stop-color="#5abec6"></stop><stop offset="0.8162" stop-color="#5ac4d1"></stop></linearGradient><linearGradient id="d" x1="67.83301" y1="7505.31628" x2="5.36159" y2="7505.31628" xlink:href="#c"></linearGradient><linearGradient id="e" x1="28.14825" y1="7501.0683" x2="28.14825" y2="7521.97348" xlink:href="#b"></linearGradient><linearGradient id="f" x1="39.79444" y1="7501.0683" x2="39.79444" y2="7521.97348" xlink:href="#b"></linearGradient></defs><path d="M94.98554,53.21716H89.85332V66.87677H88.82688V53.21716H83.69466v-.86852H95.06449v.86852Z" fill="#4d545c"></path><path d="M117.88314,66.00823v.86854h-8.76426V52.26968h8.76426v.86853h-7.65885V59.06h6.39554v.86853h-6.39554v6.0797h7.65885Z" fill="#4d545c"></path><path d="M142.99152,64.42909c.079,0,.15792,0,.15792.079l.39478.47375a9.46406,9.46406,0,0,1-.94748.86853,4.18434,4.18434,0,0,1-1.18436.63166,6.124,6.124,0,0,1-1.42123.39479,10.74685,10.74685,0,0,1-1.65811.15791,6.17728,6.17728,0,0,1-2.7635-.5527,5.22736,5.22736,0,0,1-2.13184-1.50018,7.0146,7.0146,0,0,1-1.42124-2.36872,9.68166,9.68166,0,0,1-.47375-3.07932,7.26567,7.26567,0,0,1,.5527-3.00038,5.94625,5.94625,0,0,1,1.42124-2.36872,6.10744,6.10744,0,0,1,2.2108-1.50018,6.76743,6.76743,0,0,1,2.84246-.5527,7.08261,7.08261,0,0,1,2.68455.47375,6.08522,6.08522,0,0,1,2.13184,1.34227l-.31583.47375c-.079.079-.15791.15791-.23687.15791a.72149.72149,0,0,1-.39479-.23687,3.45168,3.45168,0,0,0-.78957-.47375,7.20121,7.20121,0,0,0-1.26332-.47375,5.77645,5.77645,0,0,0-1.73706-.23687,6.43411,6.43411,0,0,0-2.44767.47374,6.12655,6.12655,0,0,0-1.895,1.26332,6.001,6.001,0,0,0-1.26332,2.0529,8.297,8.297,0,0,0,0,5.527,6.00095,6.00095,0,0,0,1.26332,2.0529,4.73253,4.73253,0,0,0,1.816,1.26332,7.39587,7.39587,0,0,0,2.28975.47374,7.67624,7.67624,0,0,0,1.42123-.079,4.52622,4.52622,0,0,0,1.1054-.31582l.94748-.47375a6.87434,6.87434,0,0,0,.86854-.71061l.079-.079C142.91257,64.42909,142.99152,64.42909,142.99152,64.42909Z" fill="#4d545c"></path><path d="M169.36323,52.26967v14.6071H168.3368V59.92853h-9.15905v6.94824h-1.10539V52.26968h1.02644V59.06h9.238V52.26969h1.02643Z" fill="#4d545c"></path><path d="M196.60347,52.26967v14.6071h-.47374a.29.29,0,0,1-.23687-.079c-.079,0-.079-.079-.15792-.15791l-9.47487-12.63315V66.7978h-.94749V52.19072h.78957c.079,0,.079.07895.15792.15791l9.47487,12.63315V52.19072h.86853Z" fill="#4d545c"></path><path d="M225.58078,59.61269A9.68172,9.68172,0,0,1,225.107,62.692a5.94659,5.94659,0,0,1-1.42122,2.36871,6.10755,6.10755,0,0,1-2.2108,1.50019,8.27574,8.27574,0,0,1-2.84246.5527,6.76766,6.76766,0,0,1-2.84247-.5527,6.1076,6.1076,0,0,1-2.21079-1.50019,5.94636,5.94636,0,0,1-1.42122-2.36871,10.24455,10.24455,0,0,1,0-6.15866,5.94636,5.94636,0,0,1,1.42122-2.36871,6.10749,6.10749,0,0,1,2.21079-1.50018,7.58557,7.58557,0,0,1,5.68493,0,6.1074,6.1074,0,0,1,2.2108,1.50018,5.94659,5.94659,0,0,1,1.42122,2.36871A9.68176,9.68176,0,0,1,225.58078,59.61269Zm-1.10539,0a10.152,10.152,0,0,0-.39479-2.7635,7.37422,7.37422,0,0,0-1.18436-2.05289,4.20849,4.20849,0,0,0-1.816-1.26332,6.1586,6.1586,0,0,0-4.73744,0,6.12625,6.12625,0,0,0-1.895,1.26332,4.84935,4.84935,0,0,0-1.18435,2.05289,7.54988,7.54988,0,0,0-.39479,2.7635,9.71518,9.71518,0,0,0,.39479,2.7635,7.37437,7.37437,0,0,0,1.18435,2.0529,4.46024,4.46024,0,0,0,1.895,1.26332,6.1586,6.1586,0,0,0,4.73744,0,5.00711,5.00711,0,0,0,1.816-1.26332,5.84348,5.84348,0,0,0,1.18436-2.0529A10.15193,10.15193,0,0,0,224.47539,59.61269Z" fill="#4d545c"></path><path d="M248.6363,66.00823v.86854h-7.97468V52.26968h1.02643V66.00823Z" fill="#4d545c"></path><path d="M274.85009,59.61269a9.68172,9.68172,0,0,1-.47375,3.07933,5.94647,5.94647,0,0,1-1.42122,2.36871,6.10752,6.10752,0,0,1-2.21079,1.50019,8.27584,8.27584,0,0,1-2.84247.5527,6.76761,6.76761,0,0,1-2.84246-.5527,6.10755,6.10755,0,0,1-2.2108-1.50019,5.94647,5.94647,0,0,1-1.42122-2.36871,10.24455,10.24455,0,0,1,0-6.15866,5.94647,5.94647,0,0,1,1.42122-2.36871,6.10753,6.10753,0,0,1,2.2108-1.50018,7.58557,7.58557,0,0,1,5.68493,0,6.10745,6.10745,0,0,1,2.21079,1.50018,5.94647,5.94647,0,0,1,1.42122,2.36871A9.68092,9.68092,0,0,1,274.85009,59.61269Zm-1.1054,0a10.15166,10.15166,0,0,0-.39479-2.7635,7.37445,7.37445,0,0,0-1.18435-2.05289,4.20858,4.20858,0,0,0-1.816-1.26332,6.15858,6.15858,0,0,0-4.73743,0,6.12614,6.12614,0,0,0-1.895,1.26332,4.84937,4.84937,0,0,0-1.18436,2.05289,7.54988,7.54988,0,0,0-.39479,2.7635,9.71553,9.71553,0,0,0,.39479,2.7635,7.37414,7.37414,0,0,0,1.18436,2.0529,4.46012,4.46012,0,0,0,1.895,1.26332,6.15858,6.15858,0,0,0,4.73743,0,5.00723,5.00723,0,0,0,1.816-1.26332,5.84361,5.84361,0,0,0,1.18435-2.0529A10.15154,10.15154,0,0,0,273.74469,59.61269Z" fill="#4d545c"></path><path d="M301.53764,60.24435v5.21118a7.04859,7.04859,0,0,1-2.28975,1.18436,9.715,9.715,0,0,1-2.76351.39479,7.40126,7.40126,0,0,1-3.07932-.5527,6.4002,6.4002,0,0,1-3.8689-3.8689,9.49664,9.49664,0,0,1-.079-6.15865,5.30783,5.30783,0,0,1,1.50018-2.36872,6.41319,6.41319,0,0,1,2.28975-1.50018,8.82651,8.82651,0,0,1,3.00037-.5527,10.0663,10.0663,0,0,1,1.57914.079,6.686,6.686,0,0,1,1.34229.31583,4.82358,4.82358,0,0,1,1.10539.55269c.31583.23688.71061.47375,1.02644.71061l-.31583.47375c-.079.15791-.23686.23688-.39478.079a4.67631,4.67631,0,0,0-.47375-.31582,3.45307,3.45307,0,0,0-.78957-.47375,10.88427,10.88427,0,0,0-1.26332-.47375,6.2101,6.2101,0,0,0-1.816-.15791,6.95456,6.95456,0,0,0-2.60558.47375,5.65369,5.65369,0,0,0-1.97393,1.26332,6.00081,6.00081,0,0,0-1.26332,2.05289,8.297,8.297,0,0,0,0,5.527,6.00081,6.00081,0,0,0,1.26332,2.05289,6.17474,6.17474,0,0,0,2.05289,1.34227,7.08278,7.08278,0,0,0,2.68454.47375,5.59226,5.59226,0,0,0,1.18436-.079c.39479-.079.71061-.15791,1.02644-.23688a4.83108,4.83108,0,0,0,.94749-.39478l.9475-.47375V60.87605h-2.68457c-.079,0-.15792,0-.15792-.079-.079-.079-.079-.079-.079-.15792v-.55269h3.94788Z" fill="#4d545c"></path><path d="M317.80281,66.87677h-1.02643V52.34864h1.02643Z" fill="#4d545c"></path><path d="M342.5954,66.00823v.86854h-8.76426V52.26968h8.76426v.86853h-7.65886V59.06h6.39554v.86853h-6.39554v6.0797h7.65886Z" fill="#4d545c"></path><path d="M364.5455,54.08569c-.079.079-.15793.15791-.23687.15791a.59861.59861,0,0,1-.31582-.15791,3.34161,3.34161,0,0,0-.55271-.39479,2.91918,2.91918,0,0,0-.86853-.39479,3.48661,3.48661,0,0,0-1.34229-.15791,3.82472,3.82472,0,0,0-1.42122.23688,4.47607,4.47607,0,0,0-1.02643.63166,3.50542,3.50542,0,0,0-.63165.86853,2.5218,2.5218,0,0,0-.23686,1.1054,2.317,2.317,0,0,0,.31582,1.26332,2.10047,2.10047,0,0,0,.86854.78957c.39478.15791.71061.39479,1.18436.5527s.86853.31582,1.34228.47375.94749.31582,1.34228.47374a3.64537,3.64537,0,0,1,1.18436.71061,3.739,3.739,0,0,1,.86853,1.02645,2.8232,2.8232,0,0,1,.31583,1.50018,4.2491,4.2491,0,0,1-.31583,1.73706,4.48038,4.48038,0,0,1-.94749,1.42123,4.07569,4.07569,0,0,1-1.50019.94749,5.18475,5.18475,0,0,1-1.97393.31582,5.63658,5.63658,0,0,1-2.44767-.47375,5.18442,5.18442,0,0,1-1.816-1.42123l.31582-.47375a.41023.41023,0,0,1,.31583-.15791c.079,0,.15792.079.23686.15791s.23686.15791.31582.31582c.15793.15792.31583.23688.47375.39479a4.40886,4.40886,0,0,0,.63165.39479,2.82838,2.82838,0,0,0,.86853.31582,4.65983,4.65983,0,0,0,1.1054.15791,5.091,5.091,0,0,0,1.57914-.23687,2.97312,2.97312,0,0,0,1.18436-.71061,2.67665,2.67665,0,0,0,.71061-1.1054,4.01068,4.01068,0,0,0,.23686-1.34227,2.00338,2.00338,0,0,0-.31582-1.26332,3.03049,3.03049,0,0,0-.86853-.86853,4.12565,4.12565,0,0,0-1.18436-.5527c-.47375-.15791-.86854-.31582-1.34228-.47375s-.9475-.31582-1.34229-.47375a3.645,3.645,0,0,1-1.18436-.71061,3.25709,3.25709,0,0,1-.78957-1.02644,3.13151,3.13151,0,0,1-.31582-1.57915A3.9202,3.9202,0,0,1,358.071,53.454a5.62143,5.62143,0,0,1,1.34229-.86853,4.38837,4.38837,0,0,1,1.816-.31583,5.59174,5.59174,0,0,1,2.0529.39479,4.70345,4.70345,0,0,1,1.6581,1.1054Z" fill="#4d545c"></path><path d="M161.38856,41.76837a15.65791,15.65791,0,0,0,5.527-3.00038,14.531,14.531,0,0,0,3.86892-5.21118,18.642,18.642,0,0,0,1.50018-7.65884,20.51961,20.51961,0,0,0-1.26332-7.81677A14.70646,14.70646,0,0,0,167.54723,12.87a13.8522,13.8522,0,0,0-5.29014-2.92141,22.64594,22.64594,0,0,0-6.71136-.86853H145.12338V42.71586H154.993A21.62393,21.62393,0,0,0,161.38856,41.76837ZM151.282,15.00187h4.02683c3.711,0,6.47449.94748,8.13259,2.7635s2.52663,4.57952,2.52663,8.1326a15.73734,15.73734,0,0,1-.63166,4.4216,9.98062,9.98062,0,0,1-1.97393,3.47412,8.46487,8.46487,0,0,1-3.39516,2.2108,12.839,12.839,0,0,1-4.8164.78957H151.361V15.00187Z" fill="#ff5100"></path><path d="M108.32931,34.34639a2.999,2.999,0,0,0-3.00038-3.00038,2.81113,2.81113,0,0,0-2.44768,1.34227h0a10.80372,10.80372,0,0,1-3.00037,3.39516,7.208,7.208,0,0,1-4.10578,1.1054,7.37882,7.37882,0,0,1-6.31658-3.3162,11.83846,11.83846,0,0,1-1.6581-3.632,15.78048,15.78048,0,0,1-.5527-4.4216,15.976,15.976,0,0,1,.5527-4.50056,11.37293,11.37293,0,0,1,1.6581-3.55307,7.67676,7.67676,0,0,1,2.68454-2.36872,7.952,7.952,0,0,1,3.632-.86853,7.37587,7.37587,0,0,1,4.10578,1.02645,8.08183,8.08183,0,0,1,2.36871,2.52663h0l.15791.39478A3.207,3.207,0,0,0,105.25,20.371a3.16758,3.16758,0,0,0,3.15829-3.15829,2.59516,2.59516,0,0,0-.31583-1.34227l-.15791-.39479h0A14.96677,14.96677,0,0,0,106.19747,12.87a15.01465,15.01465,0,0,0-2.6056-2.36872,12.00869,12.00869,0,0,0-3.39516-1.50019A14.31073,14.31073,0,0,0,95.933,8.44843a13.39169,13.39169,0,0,0-6.00076,1.26331,13.81932,13.81932,0,0,0-4.65847,3.55308,16.03162,16.03162,0,0,0-3.07933,5.448A22.35982,22.35982,0,0,0,81.08908,25.819a25.60353,25.60353,0,0,0,1.02644,7.26406,16.47454,16.47454,0,0,0,3.00038,5.448,13.07943,13.07943,0,0,0,4.57952,3.47412,14.80057,14.80057,0,0,0,6.00076,1.18435,13.64257,13.64257,0,0,0,7.65884-1.97393,13.38865,13.38865,0,0,0,4.57953-5.21117h0l.15791-.31583A6.78,6.78,0,0,0,108.32931,34.34639Z" fill="#ff5100"></path><path d="M130.75315,28.42459h0a2.92142,2.92142,0,1,0,0-5.84283H120.48872V15.08083h17.05476V9.159H114.409V42.79481h23.924V36.79406H120.56768V28.42459Z" fill="#ff5100"></path><path d="M196.44557,35.057l2.68454,7.65885h6.71137l-12.87-32.45142a3.21662,3.21662,0,0,0-3.00036-1.895,3.4408,3.4408,0,0,0-3.00037,1.895l-.079.23688-12.87,32.21454h6.55344l2.68454-7.65885Zm-8.68529-12.47524c.39479-1.02645.71061-1.97393,1.02643-2.92142s.55271-1.737.71061-2.36871l.39479-1.57915.39479,1.57915q.23688.94749.71061,2.36871c.31582.94749.63164,1.97393,1.02643,2.92142l2.36872,6.79032h-9.00112Z" fill="#ff5100"></path><path d="M364.70342,27.4771h0a2.92142,2.92142,0,1,0,0-5.84283H354.439V14.13334h17.05474V8.21155H348.35927V41.84732h23.84509V35.92553H354.439V27.4771Z" fill="#ff5100"></path><path d="M308.249,33.9516l2.68454,7.65885h6.71136L304.93279,9.31694c0-.079,0-.079-.079-.15791a3.374,3.374,0,0,0-3.00036-1.97393,3.4408,3.4408,0,0,0-3.00037,1.895l-.079.23688-12.87,32.21454h6.55344l2.68454-7.65885H308.249Zm-8.60636-12.5542c.39479-1.02645.71061-1.97393,1.02643-2.92141s.55271-1.73706.71061-2.36872l.39479-1.50019.39479,1.50019q.23688.94749.71061,2.36872c.31582.94748.63164,1.97393,1.02643,2.92141l2.36872,6.79032h-9.00112Z" fill="#ff5100"></path><path d="M283.45642,15.63352a16.58231,16.58231,0,0,0-1.895-3.3162,11.653,11.653,0,0,0-2.60558-2.60559,12.831,12.831,0,0,0-3.47411-1.6581,16.17908,16.17908,0,0,0-4.57951-.5527,13.39181,13.39181,0,0,0-6.00075,1.26331,13.81955,13.81955,0,0,0-4.65848,3.55308,16.03153,16.03153,0,0,0-3.07932,5.44805,22.35986,22.35986,0,0,0-1.1054,7.10615,25.60383,25.60383,0,0,0,1.02644,7.26406,16.47487,16.47487,0,0,0,3.00036,5.44805,13.07936,13.07936,0,0,0,4.57951,3.47412,14.80049,14.80049,0,0,0,6.00075,1.18436,16.287,16.287,0,0,0,5.36908-.86853,11.71242,11.71242,0,0,0,4.26369-2.60559,10.798,10.798,0,0,0,2.7635-4.26369,16.30688,16.30688,0,0,0,1.02644-5.76388V24.55568H272.16552a2.8471,2.8471,0,0,0,0,5.68492h5.92179l-.079.47374a7.11116,7.11116,0,0,1-.63165,2.21081,5.78455,5.78455,0,0,1-1.26332,1.816,6.83249,6.83249,0,0,1-2.13185,1.18435,11.857,11.857,0,0,1-3.15829.39479,7.37888,7.37888,0,0,1-6.31658-3.3162,11.83892,11.83892,0,0,1-1.65811-3.632,15.97635,15.97635,0,0,1-.55271-4.50056,15.97635,15.97635,0,0,1,.55271-4.50056,11.37355,11.37355,0,0,1,1.65811-3.55308,7.67683,7.67683,0,0,1,2.68454-2.36871,7.952,7.952,0,0,1,3.632-.86853,8.07972,8.07972,0,0,1,2.52664.39479,5.51359,5.51359,0,0,1,1.895,1.02644,6.41816,6.41816,0,0,1,1.42122,1.50019c.31582.47374.63165.94749.9475,1.50019h0l.15792.31583a3.22043,3.22043,0,0,0,2.84246,1.816,3.16757,3.16757,0,0,0,3.15829-3.15829,2.43154,2.43154,0,0,0-.23686-1.02645Z" fill="#ff5100"></path><path d="M343.46391,11.054a3.00912,3.00912,0,0,0-2.7635-3.00038H318.43446a3.00476,3.00476,0,0,0,0,6.00075h8.05365v27.635h6.07971v-27.635h8.05365A3.07417,3.07417,0,0,0,343.46391,11.054Z" fill="#ff5100"></path><path d="M230.08136,41.45254a3.23321,3.23321,0,0,0,3.00036,2.13184A3.16757,3.16757,0,0,0,236.24,40.42609a2.78987,2.78987,0,0,0-.31582-1.34227v-.079L230.87093,29.53l.39478-.15792a9.36494,9.36494,0,0,0,4.73744-3.632,11.12459,11.12459,0,0,0,1.57914-6.15866,12.24812,12.24812,0,0,0-.86853-4.65848,9.55967,9.55967,0,0,0-2.44768-3.3162,10.15022,10.15022,0,0,0-3.632-1.97393,16.74652,16.74652,0,0,0-4.50057-.63166H213.50031A3.14278,3.14278,0,0,0,210.5,11.84358V42.63689h6.07972V30.31957h7.57989ZM216.57967,15.00187h9.3959a6.25967,6.25967,0,0,1,3.8689,1.1054,4.38789,4.38789,0,0,1,1.42122,3.711c0,3.15828-1.816,4.89534-5.29014,4.89534h-9.39591V15.00187Z" fill="#ff5100"></path><path d="M36.79406,73.58813A36.79407,36.79407,0,1,1,73.58813,36.79406,36.831,36.831,0,0,1,36.79406,73.58813Zm0-71.37734A34.58327,34.58327,0,1,0,71.37732,36.79406,34.62383,34.62383,0,0,0,36.79406,2.21079Z" fill="url(#a)"></path><path d="M36.79406,61.50767A24.71381,24.71381,0,1,1,54.16465,19.34451a1.11663,1.11663,0,0,1-1.57915,1.57915A22.5279,22.5279,0,1,0,20.68679,52.74342a22.499,22.499,0,0,0,31.58289.31582v-3.632a1.1054,1.1054,0,0,1,2.2108,0v4.50056l-.31583.31583A23.987,23.987,0,0,1,36.79406,61.50767Z" fill="url(#b)"></path><path d="M36.79406,67.82425A31.03024,31.03024,0,1,1,67.7453,36.79406a1.1054,1.1054,0,1,1-2.2108,0A28.81939,28.81939,0,1,0,36.71511,65.61345a1.0794,1.0794,0,0,1,1.1054,1.10539A.97614.97614,0,0,1,36.79406,67.82425Z" fill="url(#c)"></path><circle cx="66.63989" cy="40.11026" r="1.1054" fill="url(#d)"></circle><path d="M36.79406,55.19109a18.397,18.397,0,0,1,0-36.79407,1.10541,1.10541,0,0,1,0,2.21081,16.18623,16.18623,0,0,0,0,32.37246,1.1054,1.1054,0,1,1,0,2.2108Z" fill="url(#e)"></path><circle cx="39.79444" cy="54.16465" r="1.1054" fill="url(#f)"></circle><path d="M370.15146,51.79593a1.34365,1.34365,0,0,1,.55271.079l.47375.23687a1.72191,1.72191,0,0,1,.39479.31583,1.38678,1.38678,0,0,1,.31585.39479l.23686.47375a1.97431,1.97431,0,0,1,0,1.10539l-.23686.47375a1.72169,1.72169,0,0,1-.31585.39479,1.3861,1.3861,0,0,1-.39479.31582l-.47375.23687a1.97369,1.97369,0,0,1-1.10542,0l-.47374-.23687a1.72234,1.72234,0,0,1-.39479-.31582,1.38624,1.38624,0,0,1-.31582-.39479l-.23687-.47375a1.97383,1.97383,0,0,1,0-1.10539l.23687-.47375a2.28886,2.28886,0,0,1,.71061-.71062l.47374-.23687C369.75668,51.87489,369.91458,51.79593,370.15146,51.79593Zm0,4.02682a1.00142,1.00142,0,0,0,.47375-.079c.15793-.079.31583-.079.47375-.15791a1.38661,1.38661,0,0,0,.39481-.31582,1.72409,1.72409,0,0,0,.31585-.39479,1.12173,1.12173,0,0,0,.15792-.47375,1.171,1.171,0,0,0,.07894-.5527,2.8046,2.8046,0,0,0-.15792-.78957,1.65632,1.65632,0,0,0-1.02644-1.02644,1.67777,1.67777,0,0,0-1.42122,0,2.77,2.77,0,0,0-.63165.39478,1.71913,1.71913,0,0,0-.39478.63166,2.336,2.336,0,0,0-.15793.78957,2.80532,2.80532,0,0,0,.15793.78958,1.65628,1.65628,0,0,0,1.02643,1.02644A1.88518,1.88518,0,0,0,370.15146,55.82275Zm-.079-3.23725a1.02026,1.02026,0,0,1,.63165.15792.56273.56273,0,0,1,.23686.47374,1.12223,1.12223,0,0,1-.15792.47375.71685.71685,0,0,1-.55271.23688.07733.07733,0,0,1,.079.079l.78957,1.02644h-.31582l-.78957-1.02644-.079-.079h-.39478v1.10539h-.23686V52.5855Zm0,1.26332a1.14135,1.14135,0,0,0,.55271-.15791.5724.5724,0,0,0,0-.78957.66745.66745,0,0,0-.47375-.15791h-.47374v1.02644h.39478Z" fill="#4d545c"></path></svg> 