<?xml version="1.0" encoding="UTF-8"?>
<!-- Generator: Adobe Illustrator 16.0.0, SVG Export Plug-In . SVG Version: 6.00 Build 0)  -->
<svg xmlns="http://www.w3.org/2000/svg" xmlns:xlink="http://www.w3.org/1999/xlink" version="1.1" id="Layer_1" x="0px" y="0px" width="400px" height="436.666px" viewBox="0 0 400 436.666" xml:space="preserve">
<g>
	<path fill-rule="evenodd" clip-rule="evenodd" fill="#ED3225" d="M84.474,258.819c-14.254,0.002-26.12-10.292-28.185-24.447   c-2.218-15.203,8.731-29.81,23.896-31.925c3.464-0.483,6.889-0.39,10.292,0.379c0.604,0.136,0.907-0.009,1.215-0.543   c7.733-13.418,15.48-26.827,23.242-40.229c0.314-0.544,0.295-0.911-0.043-1.457c-4.783-7.73-4.768-15.472,0.057-23.181   c0.309-0.493,0.374-0.841,0.067-1.372c-7.908-13.672-15.801-27.354-23.682-41.043c-0.281-0.488-0.552-0.632-1.134-0.54   c-14.403,2.293-28.767-7.704-31.677-22.024c-3.123-15.364,6.017-29.857,21.189-33.6c15.264-3.765,31.112,6.199,34.249,21.63   c1.911,9.404-0.389,17.756-6.735,24.963c-0.472,0.536-0.497,0.886-0.146,1.493c7.777,13.432,15.537,26.874,23.27,40.332   c0.4,0.697,0.815,0.883,1.595,0.89c8.521,0.077,14.825,3.91,18.939,11.348c0.292,0.527,0.598,0.7,1.182,0.699   c15.993-0.015,31.985-0.015,47.979,0.002c0.604,0.001,0.877-0.184,1.109-0.748c4.797-11.651,15.948-18.565,28.49-17.694   c12.89,0.895,23.824,11.018,25.753,23.843c2.408,16.001-8.418,30.456-24.409,32.591c-13.321,1.778-26.188-6.309-30.424-19.167   c-0.293-0.891-0.631-1.192-1.6-1.189c-15.514,0.037-31.027,0.032-46.541,0.01c-0.802-0.001-1.233,0.21-1.65,0.954   c-4.165,7.414-10.525,11.164-19.042,11.16c-0.741-0.001-1.082,0.238-1.423,0.829c-7.834,13.597-15.678,27.188-23.548,40.765   c-0.388,0.669-0.369,1.068,0.11,1.685c13.011,16.732,3.358,41.623-17.496,45.174C87.749,258.682,86.12,258.841,84.474,258.819z    M84.379,248.339c9.864,0.002,17.889-7.952,17.898-17.743c0.01-9.937-8.037-18.037-17.892-18.012   c-9.813,0.024-17.871,8.123-17.865,17.952C66.527,240.328,74.561,248.337,84.379,248.339z M209.548,149.983   c-0.003,9.811,7.969,17.926,17.622,17.939c10.04,0.014,18.155-7.98,18.135-17.864c-0.021-9.736-8.021-17.856-17.595-17.859   C217.571,132.196,209.551,140.05,209.548,149.983z M104.127,66.45c0.006-9.756-8.016-17.874-17.676-17.889   C76.464,48.547,68.39,56.49,68.37,66.351c-0.02,9.856,7.995,17.934,17.826,17.965C96.015,84.347,104.12,76.271,104.127,66.45z    M141.764,150.045c0-5.323-4.25-9.605-9.543-9.617c-5.32-0.012-9.655,4.345-9.626,9.672c0.029,5.323,4.273,9.516,9.629,9.511   C137.589,159.605,141.765,155.419,141.764,150.045z"></path>
	<path fill-rule="evenodd" clip-rule="evenodd" fill="#0167A5" d="M212.226,335.77c3.563-1.64,7.226-2.182,11.036-1.846   c5.741,0.504,11.068,2.402,16.19,4.917c7.328,3.599,14.523,7.472,22.065,10.622c6.605,2.759,13.335,5.123,20.441,6.226   c4.779,0.74,9.545,0.796,14.231-0.631c6.756-2.058,11.091-6.77,14.039-12.947c2.342-4.906,3.401-10.063,2.998-15.523   c-0.339-4.584-0.039-9.17,0.353-13.738c0.736-8.583,2.525-16.949,5.127-25.167c5.717-18.056,17.138-31.438,33.27-41.026   c2.292-1.362,4.678-2.602,6.723-4.324c2.069-1.742,2.156-1.395,0.226-3.298c-3.657-3.606-7.662-6.833-11.491-10.251   c-5.33-4.757-10.341-9.801-14.072-15.961c-3.572-5.896-5.807-12.347-7.701-18.929c-2.288-7.953-3.791-16.094-5.759-24.124   c-1.498-6.114-3.215-12.167-6.039-17.82c-5.946-11.901-14.618-21.494-25.212-29.43c-10.994-8.235-23.208-14.115-36.096-18.695   c-9.355-3.326-18.922-5.906-28.68-7.696c-10.795-1.981-21.693-2.909-32.684-2.53c-13.12,0.452-25.993,2.494-38.6,6.123   c-7.786,2.242-15.408,4.969-22.732,8.463c-0.708,0.339-0.872-0.001-1.143-0.482c-2.678-4.769-5.357-9.535-8.067-14.285   c-0.335-0.588-0.283-0.817,0.339-1.129c4.007-2.007,8.159-3.668,12.326-5.303c11.303-4.433,22.953-7.605,34.914-9.643   c10.481-1.785,21.039-2.598,31.675-2.45c16.615,0.231,32.743,3.332,48.592,8.126c15.287,4.623,29.867,10.821,43.312,19.525   c10.361,6.708,19.602,14.679,27.229,24.438c8.438,10.799,13.927,22.959,16.913,36.31c1.799,8.039,3.186,16.162,5.125,24.169   c0.95,3.923,2.123,7.775,3.521,11.563c2.031,5.5,5.419,10.084,9.423,14.283c4.775,5.009,10.061,9.489,14.896,14.435   c1.943,1.988,3.727,4.093,4.879,6.671c2.631,5.885,1.561,11.805-2.961,16.436c-2.861,2.93-6.317,4.998-9.883,6.908   c-4.716,2.525-9.219,5.362-13.354,8.777c-8.203,6.776-13.803,15.354-17.598,25.203c-3.541,9.188-5.62,18.697-6.449,28.503   c-0.335,3.959,0.006,7.961-0.596,11.883c-1.764,11.509-6.934,20.991-17.115,27.171c-5.592,3.395-11.834,4.282-18.294,3.774   c-8.842-0.695-16.965-3.769-24.857-7.581c-8.482-4.097-16.426-9.132-24.46-14.012c-4.49-2.728-9.182-4.999-14.369-6.093   c-3.579-0.755-7.13-0.762-10.643,0.354C212.911,335.832,212.627,335.892,212.226,335.77z"></path>
	<path fill-rule="evenodd" clip-rule="evenodd" fill="#0167A5" d="M126.541,418.775c-0.142-2.308-0.251-4.618-0.431-6.923   c-1.117-14.28-3.651-28.243-9.007-41.622c-3.771-9.422-10.026-16.858-17.777-23.194c-5.865-4.795-12.189-8.943-18.493-13.119   c-6.376-4.225-12.434-8.838-17.93-14.177c-9.064-8.806-15.756-19.216-20.828-30.72c-4.759-10.794-7.919-22.043-9.403-33.75   c-0.727-5.738-1.168-11.499-1.342-17.285c-0.296-9.847,0.332-19.635,1.721-29.373c2.257-15.822,6.255-31.13,13.503-45.484   c6.07-12.021,13.638-22.987,22.771-32.876c6.122-6.628,12.757-12.698,19.829-18.297c0.607-0.481,0.889-0.529,1.341,0.21   c2.73,4.462,5.496,8.904,8.308,13.316c0.479,0.751,0.292,1.055-0.325,1.527c-8.484,6.494-16.242,13.757-23.079,21.979   c-12.367,14.873-20.723,31.755-25.323,50.532c-2.637,10.758-4.404,21.641-4.893,32.71c-0.499,11.314,0.055,22.578,2.235,33.711   c2.845,14.523,7.979,28.128,16.791,40.153c5.814,7.934,12.982,14.523,20.777,20.468c6.286,4.794,12.633,9.518,18.438,14.906   c5.983,5.555,11.327,11.633,14.818,19.102c2.788,5.965,4.625,12.262,6.018,18.688c2.349,10.835,2.932,21.815,2.687,32.862   c-0.049,2.217-0.142,4.434-0.215,6.65C126.668,418.772,126.604,418.774,126.541,418.775z"></path>
	<path fill-rule="evenodd" clip-rule="evenodd" fill="#F8A01C" d="M294.262,206.626c-9.962-0.033-17.657-6.225-19.23-14.714   c-1.151-6.214,0.695-11.628,5.124-16.151c0.622-0.635,1.2-1.313,1.814-1.956c2.433-2.544,2.933-5.529,2.078-8.851   c-0.41-1.596-0.976-3.132-1.645-4.631c-0.519-1.162-0.546-2.259,0.368-3.235c0.916-0.979,2.012-1.025,3.205-0.571   c5.701,2.169,11.061,4.913,15.553,9.143c5.137,4.837,7.684,10.876,8.299,17.809c0.435,4.9-0.152,9.65-2.484,14.045   C304.297,203.253,299.618,206.515,294.262,206.626z M283.001,181.202c0.928-0.51,1.833-1.065,2.786-1.522   c6.322-3.034,12.724-1.958,17.724,2.944c0.143,0.14,0.227,0.442,0.578,0.314c-0.133-4.253-1.582-8.013-4.28-11.279   c-2.841-3.44-6.426-5.894-10.519-7.881c0.021,0.315,0.012,0.453,0.041,0.582c1.13,5.046-0.009,9.469-3.575,13.257   c-1.027,1.091-2.112,2.142-2.896,3.442c-0.031,0.07-0.063,0.141-0.095,0.211C282.844,181.247,282.923,181.225,283.001,181.202z"></path>
	<path fill-rule="evenodd" clip-rule="evenodd" fill="#0167A5" d="M256.094,230.538c6.123-8.405,12.165-16.697,18.215-25.001   c0.324,0.206,0.169,0.507,0.169,0.743c0.009,12.188-0.001,24.377,0.028,36.565c0.002,0.835-0.25,1.013-1.025,0.991   c-1.882-0.054-3.767-0.055-5.648,0.001c-0.75,0.021-0.978-0.153-0.971-0.945c0.041-4.724,0.021-9.448,0.021-14.52   c-3.682,5.076-7.191,9.915-10.789,14.876c-3.568-4.91-7.091-9.758-10.642-14.644c-0.318,0.304-0.171,0.66-0.172,0.965   c-0.011,4.417-0.029,8.833,0.012,13.249c0.008,0.813-0.211,1.045-1.021,1.02c-1.915-0.06-3.834-0.037-5.751-0.009   c-0.575,0.009-0.836-0.072-0.835-0.761c0.022-12.46,0.017-24.92,0.192-37.493C243.921,213.858,249.965,222.141,256.094,230.538z"></path>
	<path fill-rule="evenodd" clip-rule="evenodd" fill="#0167A5" d="M153.825,244.668c-7.606-7.244-15.027-14.312-22.608-21.531   c-0.024,0.529-0.055,0.88-0.056,1.229c-0.003,6.096-0.034,12.191,0.028,18.287c0.011,1.09-0.32,1.31-1.319,1.267   c-1.846-0.079-3.698-0.036-5.547-0.014c-0.517,0.006-0.719-0.133-0.719-0.688c0.014-12.498,0.011-24.996,0.011-37.763   c7.563,7.2,14.973,14.255,22.398,21.323c0.354-0.384,0.197-0.775,0.197-1.123c0.012-6.164,0.025-12.328-0.011-18.492   c-0.005-0.816,0.218-1.03,1.016-1.004c1.813,0.061,3.632,0.068,5.444-0.001c0.908-0.035,1.193,0.183,1.189,1.153   c-0.04,10.172-0.024,20.342-0.024,30.513C153.825,240.014,153.825,242.202,153.825,244.668z"></path>
	<path fill-rule="evenodd" clip-rule="evenodd" fill="#0167A5" d="M193.672,243.819c-2.713,0-5.241-0.014-7.769,0.01   c-0.508,0.005-0.622-0.322-0.773-0.664c-0.638-1.438-1.295-2.867-1.899-4.318c-0.214-0.514-0.485-0.721-1.063-0.717   c-3.768,0.026-7.535,0.03-11.302-0.003c-0.634-0.006-0.908,0.243-1.134,0.78c-0.608,1.449-1.271,2.877-1.895,4.32   c-0.162,0.374-0.334,0.607-0.811,0.604c-2.498-0.024-4.996-0.012-7.682-0.012c5.717-12.795,11.385-25.48,17.152-38.389   C182.275,218.346,187.943,231.014,193.672,243.819z M176.521,223.583c-1.179,2.7-2.275,5.211-3.424,7.842   c2.098,0,4.035-0.03,5.971,0.016c0.796,0.019,0.736-0.27,0.492-0.827C178.562,228.339,177.587,226.054,176.521,223.583z"></path>
	<path fill-rule="evenodd" clip-rule="evenodd" fill="#0268A5" d="M303.634,209.069c0,11.551-0.003,22.771,0.011,33.99   c0,0.563-0.132,0.782-0.736,0.773c-2.052-0.033-4.105-0.035-6.157,0c-0.603,0.011-0.734-0.2-0.733-0.764   c0.015-9.817,0.011-19.635,0.011-29.453c0-0.339-0.059-0.691,0.415-0.805C299.062,212.188,301.459,211.107,303.634,209.069z"></path>
	<path fill-rule="evenodd" clip-rule="evenodd" fill="#0268A5" d="M281.438,209.991c2.211,1.703,4.522,2.674,7.043,3.124   c0.521,0.093,0.579,0.34,0.566,0.76c-0.018,0.616-0.004,1.232-0.004,1.85c0,9.007-0.012,18.014,0.019,27.02   c0.003,0.825-0.162,1.128-1.048,1.097c-1.949-0.068-3.903-0.032-5.855-0.013c-0.489,0.005-0.733-0.073-0.732-0.658   C281.442,232.18,281.438,221.189,281.438,209.991z"></path>
	<path fill-rule="evenodd" clip-rule="evenodd" fill="#FEFDFC" d="M283.001,181.202c-0.078,0.022-0.157,0.045-0.235,0.068   c0.031-0.07,0.063-0.141,0.095-0.211C282.908,181.105,282.955,181.153,283.001,181.202z"></path>
	<path fill-rule="evenodd" clip-rule="evenodd" fill="#0167A5" d="M232.027,243.819c-2.713,0-5.241-0.014-7.769,0.01   c-0.508,0.005-0.622-0.322-0.773-0.664c-0.638-1.438-1.295-2.867-1.899-4.318c-0.214-0.514-0.485-0.721-1.063-0.717   c-3.768,0.026-7.535,0.03-11.302-0.003c-0.634-0.006-0.908,0.243-1.134,0.78c-0.608,1.449-1.271,2.877-1.895,4.32   c-0.162,0.374-0.334,0.607-0.811,0.604c-2.498-0.024-4.996-0.012-7.682-0.012c5.717-12.795,11.385-25.48,17.152-38.389   C220.631,218.346,226.299,231.014,232.027,243.819z M214.877,223.583c-1.179,2.7-2.275,5.211-3.424,7.842   c2.098,0,4.035-0.03,5.971,0.016c0.796,0.019,0.736-0.27,0.492-0.827C216.917,228.339,215.942,226.054,214.877,223.583z"></path>
</g>
</svg>
